<mxfile host="app.diagrams.net" agent="Mozilla/5.0 (Windows NT 10.0; Win64; x64) AppleWebKit/537.36 (KHTML, like Gecko) Chrome/127.0.0.0 Safari/537.36" version="24.7.6">
  <diagram name="PÃ¡gina-1" id="DZGaDXZChRIoJ_zxI3Ib">
    <mxGraphModel dx="1156" dy="852" grid="0" gridSize="10" guides="1" tooltips="1" connect="1" arrows="1" fold="1" page="0" pageScale="1" pageWidth="1169" pageHeight="827" math="0" shadow="0">
      <root>
        <mxCell id="0" />
        <mxCell id="1" parent="0" />
        <mxCell id="2vN1RhJ9gDcvStLrzZKb-1" value="Ingredientes" style="swimlane;fontStyle=0;childLayout=stackLayout;horizontal=1;startSize=30;horizontalStack=0;resizeParent=1;resizeParentMax=0;resizeLast=0;collapsible=1;marginBottom=0;whiteSpace=wrap;html=1;fillColor=#dae8fc;strokeColor=#6c8ebf;" vertex="1" parent="1">
          <mxGeometry x="-4" y="-25" width="170" height="90" as="geometry" />
        </mxCell>
        <mxCell id="2vN1RhJ9gDcvStLrzZKb-3" value="+obtenerNombre(): String" style="text;strokeColor=none;fillColor=none;align=left;verticalAlign=middle;spacingLeft=4;spacingRight=4;overflow=hidden;points=[[0,0.5],[1,0.5]];portConstraint=eastwest;rotatable=0;whiteSpace=wrap;html=1;" vertex="1" parent="2vN1RhJ9gDcvStLrzZKb-1">
          <mxGeometry y="30" width="170" height="30" as="geometry" />
        </mxCell>
        <mxCell id="2vN1RhJ9gDcvStLrzZKb-4" value="+obtenerCantidad(): int" style="text;strokeColor=none;fillColor=none;align=left;verticalAlign=middle;spacingLeft=4;spacingRight=4;overflow=hidden;points=[[0,0.5],[1,0.5]];portConstraint=eastwest;rotatable=0;whiteSpace=wrap;html=1;" vertex="1" parent="2vN1RhJ9gDcvStLrzZKb-1">
          <mxGeometry y="60" width="170" height="30" as="geometry" />
        </mxCell>
        <mxCell id="2vN1RhJ9gDcvStLrzZKb-15" value="Masa" style="swimlane;fontStyle=1;align=center;verticalAlign=top;childLayout=stackLayout;horizontal=1;startSize=26;horizontalStack=0;resizeParent=1;resizeLast=0;collapsible=1;marginBottom=0;rounded=0;shadow=0;strokeWidth=1;fillColor=#dae8fc;strokeColor=#6c8ebf;" vertex="1" parent="1">
          <mxGeometry x="-226" y="143" width="160" height="170" as="geometry">
            <mxRectangle x="130" y="380" width="160" height="26" as="alternateBounds" />
          </mxGeometry>
        </mxCell>
        <mxCell id="2vN1RhJ9gDcvStLrzZKb-16" value="-tipo" style="text;align=left;verticalAlign=top;spacingLeft=4;spacingRight=4;overflow=hidden;rotatable=0;points=[[0,0.5],[1,0.5]];portConstraint=eastwest;" vertex="1" parent="2vN1RhJ9gDcvStLrzZKb-15">
          <mxGeometry y="26" width="160" height="28" as="geometry" />
        </mxCell>
        <mxCell id="2vN1RhJ9gDcvStLrzZKb-17" value="-cantidad" style="text;align=left;verticalAlign=top;spacingLeft=4;spacingRight=4;overflow=hidden;rotatable=0;points=[[0,0.5],[1,0.5]];portConstraint=eastwest;rounded=0;shadow=0;html=0;" vertex="1" parent="2vN1RhJ9gDcvStLrzZKb-15">
          <mxGeometry y="54" width="160" height="30" as="geometry" />
        </mxCell>
        <mxCell id="2vN1RhJ9gDcvStLrzZKb-19" value="" style="line;html=1;strokeWidth=1;align=left;verticalAlign=middle;spacingTop=-1;spacingLeft=3;spacingRight=3;rotatable=0;labelPosition=right;points=[];portConstraint=eastwest;" vertex="1" parent="2vN1RhJ9gDcvStLrzZKb-15">
          <mxGeometry y="84" width="160" height="8" as="geometry" />
        </mxCell>
        <mxCell id="2vN1RhJ9gDcvStLrzZKb-20" value="+obtenerNombre(): String" style="text;align=left;verticalAlign=top;spacingLeft=4;spacingRight=4;overflow=hidden;rotatable=0;points=[[0,0.5],[1,0.5]];portConstraint=eastwest;fontStyle=4" vertex="1" parent="2vN1RhJ9gDcvStLrzZKb-15">
          <mxGeometry y="92" width="160" height="26" as="geometry" />
        </mxCell>
        <mxCell id="2vN1RhJ9gDcvStLrzZKb-21" value="+obtenerCantidad(): int" style="text;align=left;verticalAlign=top;spacingLeft=4;spacingRight=4;overflow=hidden;rotatable=0;points=[[0,0.5],[1,0.5]];portConstraint=eastwest;" vertex="1" parent="2vN1RhJ9gDcvStLrzZKb-15">
          <mxGeometry y="118" width="160" height="26" as="geometry" />
        </mxCell>
        <mxCell id="2vN1RhJ9gDcvStLrzZKb-22" value="Salsa" style="swimlane;fontStyle=1;align=center;verticalAlign=top;childLayout=stackLayout;horizontal=1;startSize=26;horizontalStack=0;resizeParent=1;resizeLast=0;collapsible=1;marginBottom=0;rounded=0;shadow=0;strokeWidth=1;fillColor=#dae8fc;strokeColor=#6c8ebf;" vertex="1" parent="1">
          <mxGeometry x="-22" y="143" width="160" height="170" as="geometry">
            <mxRectangle x="130" y="380" width="160" height="26" as="alternateBounds" />
          </mxGeometry>
        </mxCell>
        <mxCell id="2vN1RhJ9gDcvStLrzZKb-23" value="-tipo" style="text;align=left;verticalAlign=top;spacingLeft=4;spacingRight=4;overflow=hidden;rotatable=0;points=[[0,0.5],[1,0.5]];portConstraint=eastwest;" vertex="1" parent="2vN1RhJ9gDcvStLrzZKb-22">
          <mxGeometry y="26" width="160" height="28" as="geometry" />
        </mxCell>
        <mxCell id="2vN1RhJ9gDcvStLrzZKb-24" value="-cantidad" style="text;align=left;verticalAlign=top;spacingLeft=4;spacingRight=4;overflow=hidden;rotatable=0;points=[[0,0.5],[1,0.5]];portConstraint=eastwest;rounded=0;shadow=0;html=0;" vertex="1" parent="2vN1RhJ9gDcvStLrzZKb-22">
          <mxGeometry y="54" width="160" height="30" as="geometry" />
        </mxCell>
        <mxCell id="2vN1RhJ9gDcvStLrzZKb-25" value="" style="line;html=1;strokeWidth=1;align=left;verticalAlign=middle;spacingTop=-1;spacingLeft=3;spacingRight=3;rotatable=0;labelPosition=right;points=[];portConstraint=eastwest;" vertex="1" parent="2vN1RhJ9gDcvStLrzZKb-22">
          <mxGeometry y="84" width="160" height="8" as="geometry" />
        </mxCell>
        <mxCell id="2vN1RhJ9gDcvStLrzZKb-26" value="+obtenerNombre(): String" style="text;align=left;verticalAlign=top;spacingLeft=4;spacingRight=4;overflow=hidden;rotatable=0;points=[[0,0.5],[1,0.5]];portConstraint=eastwest;fontStyle=4" vertex="1" parent="2vN1RhJ9gDcvStLrzZKb-22">
          <mxGeometry y="92" width="160" height="26" as="geometry" />
        </mxCell>
        <mxCell id="2vN1RhJ9gDcvStLrzZKb-27" value="+obtenerCantidad(): int" style="text;align=left;verticalAlign=top;spacingLeft=4;spacingRight=4;overflow=hidden;rotatable=0;points=[[0,0.5],[1,0.5]];portConstraint=eastwest;" vertex="1" parent="2vN1RhJ9gDcvStLrzZKb-22">
          <mxGeometry y="118" width="160" height="26" as="geometry" />
        </mxCell>
        <mxCell id="2vN1RhJ9gDcvStLrzZKb-28" value="Queso" style="swimlane;fontStyle=1;align=center;verticalAlign=top;childLayout=stackLayout;horizontal=1;startSize=26;horizontalStack=0;resizeParent=1;resizeLast=0;collapsible=1;marginBottom=0;rounded=0;shadow=0;strokeWidth=1;fillColor=#dae8fc;strokeColor=#6c8ebf;" vertex="1" parent="1">
          <mxGeometry x="176" y="144" width="160" height="170" as="geometry">
            <mxRectangle x="130" y="380" width="160" height="26" as="alternateBounds" />
          </mxGeometry>
        </mxCell>
        <mxCell id="2vN1RhJ9gDcvStLrzZKb-29" value="-tipo" style="text;align=left;verticalAlign=top;spacingLeft=4;spacingRight=4;overflow=hidden;rotatable=0;points=[[0,0.5],[1,0.5]];portConstraint=eastwest;" vertex="1" parent="2vN1RhJ9gDcvStLrzZKb-28">
          <mxGeometry y="26" width="160" height="28" as="geometry" />
        </mxCell>
        <mxCell id="2vN1RhJ9gDcvStLrzZKb-30" value="-cantidad" style="text;align=left;verticalAlign=top;spacingLeft=4;spacingRight=4;overflow=hidden;rotatable=0;points=[[0,0.5],[1,0.5]];portConstraint=eastwest;rounded=0;shadow=0;html=0;" vertex="1" parent="2vN1RhJ9gDcvStLrzZKb-28">
          <mxGeometry y="54" width="160" height="30" as="geometry" />
        </mxCell>
        <mxCell id="2vN1RhJ9gDcvStLrzZKb-31" value="" style="line;html=1;strokeWidth=1;align=left;verticalAlign=middle;spacingTop=-1;spacingLeft=3;spacingRight=3;rotatable=0;labelPosition=right;points=[];portConstraint=eastwest;" vertex="1" parent="2vN1RhJ9gDcvStLrzZKb-28">
          <mxGeometry y="84" width="160" height="8" as="geometry" />
        </mxCell>
        <mxCell id="2vN1RhJ9gDcvStLrzZKb-32" value="+obtenerNombre(): String" style="text;align=left;verticalAlign=top;spacingLeft=4;spacingRight=4;overflow=hidden;rotatable=0;points=[[0,0.5],[1,0.5]];portConstraint=eastwest;fontStyle=4" vertex="1" parent="2vN1RhJ9gDcvStLrzZKb-28">
          <mxGeometry y="92" width="160" height="26" as="geometry" />
        </mxCell>
        <mxCell id="2vN1RhJ9gDcvStLrzZKb-33" value="+obtenerCantidad(): int" style="text;align=left;verticalAlign=top;spacingLeft=4;spacingRight=4;overflow=hidden;rotatable=0;points=[[0,0.5],[1,0.5]];portConstraint=eastwest;" vertex="1" parent="2vN1RhJ9gDcvStLrzZKb-28">
          <mxGeometry y="118" width="160" height="26" as="geometry" />
        </mxCell>
        <mxCell id="2vN1RhJ9gDcvStLrzZKb-41" value="Pizza" style="swimlane;fontStyle=1;align=center;verticalAlign=top;childLayout=stackLayout;horizontal=1;startSize=28;horizontalStack=0;resizeParent=1;resizeLast=0;collapsible=1;marginBottom=0;rounded=0;shadow=0;strokeWidth=1;fillColor=#f8cecc;strokeColor=#b85450;" vertex="1" parent="1">
          <mxGeometry x="440" y="-81" width="165" height="301" as="geometry">
            <mxRectangle x="550" y="140" width="160" height="26" as="alternateBounds" />
          </mxGeometry>
        </mxCell>
        <mxCell id="2vN1RhJ9gDcvStLrzZKb-83" value="-nombre: String" style="text;align=left;verticalAlign=top;spacingLeft=4;spacingRight=4;overflow=hidden;rotatable=0;points=[[0,0.5],[1,0.5]];portConstraint=eastwest;" vertex="1" parent="2vN1RhJ9gDcvStLrzZKb-41">
          <mxGeometry y="28" width="165" height="26" as="geometry" />
        </mxCell>
        <mxCell id="2vN1RhJ9gDcvStLrzZKb-82" value="-tamano: String" style="text;align=left;verticalAlign=top;spacingLeft=4;spacingRight=4;overflow=hidden;rotatable=0;points=[[0,0.5],[1,0.5]];portConstraint=eastwest;" vertex="1" parent="2vN1RhJ9gDcvStLrzZKb-41">
          <mxGeometry y="54" width="165" height="26" as="geometry" />
        </mxCell>
        <mxCell id="2vN1RhJ9gDcvStLrzZKb-167" value="dispatch" style="html=1;verticalAlign=bottom;endArrow=block;curved=0;rounded=0;fontSize=12;startSize=8;endSize=8;entryX=0.993;entryY=0.276;entryDx=0;entryDy=0;entryPerimeter=0;" edge="1" parent="2vN1RhJ9gDcvStLrzZKb-41" target="2vN1RhJ9gDcvStLrzZKb-3">
          <mxGeometry width="80" relative="1" as="geometry">
            <mxPoint x="-8" y="92" as="sourcePoint" />
            <mxPoint x="-268" y="84" as="targetPoint" />
            <Array as="points">
              <mxPoint x="-1" y="92" />
            </Array>
          </mxGeometry>
        </mxCell>
        <mxCell id="2vN1RhJ9gDcvStLrzZKb-70" value="-precio: double" style="text;align=left;verticalAlign=top;spacingLeft=4;spacingRight=4;overflow=hidden;rotatable=0;points=[[0,0.5],[1,0.5]];portConstraint=eastwest;" vertex="1" parent="2vN1RhJ9gDcvStLrzZKb-41">
          <mxGeometry y="80" width="165" height="26" as="geometry" />
        </mxCell>
        <mxCell id="2vN1RhJ9gDcvStLrzZKb-59" value="-masa: masa" style="text;align=left;verticalAlign=top;spacingLeft=4;spacingRight=4;overflow=hidden;rotatable=0;points=[[0,0.5],[1,0.5]];portConstraint=eastwest;" vertex="1" parent="2vN1RhJ9gDcvStLrzZKb-41">
          <mxGeometry y="106" width="165" height="26" as="geometry" />
        </mxCell>
        <mxCell id="2vN1RhJ9gDcvStLrzZKb-42" value="-salsa: salsa" style="text;align=left;verticalAlign=top;spacingLeft=4;spacingRight=4;overflow=hidden;rotatable=0;points=[[0,0.5],[1,0.5]];portConstraint=eastwest;" vertex="1" parent="2vN1RhJ9gDcvStLrzZKb-41">
          <mxGeometry y="132" width="165" height="26" as="geometry" />
        </mxCell>
        <mxCell id="2vN1RhJ9gDcvStLrzZKb-43" value="-queso: queso" style="text;align=left;verticalAlign=top;spacingLeft=4;spacingRight=4;overflow=hidden;rotatable=0;points=[[0,0.5],[1,0.5]];portConstraint=eastwest;" vertex="1" parent="2vN1RhJ9gDcvStLrzZKb-41">
          <mxGeometry y="158" width="165" height="26" as="geometry" />
        </mxCell>
        <mxCell id="2vN1RhJ9gDcvStLrzZKb-44" value="" style="line;html=1;strokeWidth=1;align=left;verticalAlign=middle;spacingTop=-1;spacingLeft=3;spacingRight=3;rotatable=0;labelPosition=right;points=[];portConstraint=eastwest;" vertex="1" parent="2vN1RhJ9gDcvStLrzZKb-41">
          <mxGeometry y="184" width="165" height="8" as="geometry" />
        </mxCell>
        <mxCell id="2vN1RhJ9gDcvStLrzZKb-45" value="+preparar()" style="text;align=left;verticalAlign=top;spacingLeft=4;spacingRight=4;overflow=hidden;rotatable=0;points=[[0,0.5],[1,0.5]];portConstraint=eastwest;" vertex="1" parent="2vN1RhJ9gDcvStLrzZKb-41">
          <mxGeometry y="192" width="165" height="26" as="geometry" />
        </mxCell>
        <mxCell id="2vN1RhJ9gDcvStLrzZKb-46" value="+hornear()" style="text;align=left;verticalAlign=top;spacingLeft=4;spacingRight=4;overflow=hidden;rotatable=0;points=[[0,0.5],[1,0.5]];portConstraint=eastwest;" vertex="1" parent="2vN1RhJ9gDcvStLrzZKb-41">
          <mxGeometry y="218" width="165" height="28" as="geometry" />
        </mxCell>
        <mxCell id="2vN1RhJ9gDcvStLrzZKb-47" value="+cortar()" style="text;align=left;verticalAlign=top;spacingLeft=4;spacingRight=4;overflow=hidden;rotatable=0;points=[[0,0.5],[1,0.5]];portConstraint=eastwest;" vertex="1" parent="2vN1RhJ9gDcvStLrzZKb-41">
          <mxGeometry y="246" width="165" height="26" as="geometry" />
        </mxCell>
        <mxCell id="2vN1RhJ9gDcvStLrzZKb-49" value="+empacar()" style="text;align=left;verticalAlign=top;spacingLeft=4;spacingRight=4;overflow=hidden;rotatable=0;points=[[0,0.5],[1,0.5]];portConstraint=eastwest;" vertex="1" parent="2vN1RhJ9gDcvStLrzZKb-41">
          <mxGeometry y="272" width="165" height="26" as="geometry" />
        </mxCell>
        <mxCell id="2vN1RhJ9gDcvStLrzZKb-84" value="PizzaNuevaYork" style="swimlane;fontStyle=1;align=center;verticalAlign=top;childLayout=stackLayout;horizontal=1;startSize=26;horizontalStack=0;resizeParent=1;resizeLast=0;collapsible=1;marginBottom=0;rounded=0;shadow=0;strokeWidth=1;fillColor=#f8cecc;strokeColor=#b85450;" vertex="1" parent="1">
          <mxGeometry x="358" y="292" width="160" height="170" as="geometry">
            <mxRectangle x="130" y="380" width="160" height="26" as="alternateBounds" />
          </mxGeometry>
        </mxCell>
        <mxCell id="2vN1RhJ9gDcvStLrzZKb-86" value="-estiloCorte: String" style="text;align=left;verticalAlign=top;spacingLeft=4;spacingRight=4;overflow=hidden;rotatable=0;points=[[0,0.5],[1,0.5]];portConstraint=eastwest;rounded=0;shadow=0;html=0;" vertex="1" parent="2vN1RhJ9gDcvStLrzZKb-84">
          <mxGeometry y="26" width="160" height="30" as="geometry" />
        </mxCell>
        <mxCell id="2vN1RhJ9gDcvStLrzZKb-87" value="" style="line;html=1;strokeWidth=1;align=left;verticalAlign=middle;spacingTop=-1;spacingLeft=3;spacingRight=3;rotatable=0;labelPosition=right;points=[];portConstraint=eastwest;" vertex="1" parent="2vN1RhJ9gDcvStLrzZKb-84">
          <mxGeometry y="56" width="160" height="8" as="geometry" />
        </mxCell>
        <mxCell id="2vN1RhJ9gDcvStLrzZKb-88" value="+preparar()" style="text;align=left;verticalAlign=top;spacingLeft=4;spacingRight=4;overflow=hidden;rotatable=0;points=[[0,0.5],[1,0.5]];portConstraint=eastwest;fontStyle=4" vertex="1" parent="2vN1RhJ9gDcvStLrzZKb-84">
          <mxGeometry y="64" width="160" height="26" as="geometry" />
        </mxCell>
        <mxCell id="2vN1RhJ9gDcvStLrzZKb-89" value="+hornear()" style="text;align=left;verticalAlign=top;spacingLeft=4;spacingRight=4;overflow=hidden;rotatable=0;points=[[0,0.5],[1,0.5]];portConstraint=eastwest;" vertex="1" parent="2vN1RhJ9gDcvStLrzZKb-84">
          <mxGeometry y="90" width="160" height="26" as="geometry" />
        </mxCell>
        <mxCell id="2vN1RhJ9gDcvStLrzZKb-96" value="+cortar()" style="text;align=left;verticalAlign=top;spacingLeft=4;spacingRight=4;overflow=hidden;rotatable=0;points=[[0,0.5],[1,0.5]];portConstraint=eastwest;" vertex="1" parent="2vN1RhJ9gDcvStLrzZKb-84">
          <mxGeometry y="116" width="160" height="26" as="geometry" />
        </mxCell>
        <mxCell id="2vN1RhJ9gDcvStLrzZKb-97" value="+empacar()" style="text;align=left;verticalAlign=top;spacingLeft=4;spacingRight=4;overflow=hidden;rotatable=0;points=[[0,0.5],[1,0.5]];portConstraint=eastwest;" vertex="1" parent="2vN1RhJ9gDcvStLrzZKb-84">
          <mxGeometry y="142" width="160" height="26" as="geometry" />
        </mxCell>
        <mxCell id="2vN1RhJ9gDcvStLrzZKb-90" value="PizzaChicago" style="swimlane;fontStyle=1;align=center;verticalAlign=top;childLayout=stackLayout;horizontal=1;startSize=26;horizontalStack=0;resizeParent=1;resizeLast=0;collapsible=1;marginBottom=0;rounded=0;shadow=0;strokeWidth=1;fillColor=#f8cecc;strokeColor=#b85450;" vertex="1" parent="1">
          <mxGeometry x="547" y="291" width="160" height="170" as="geometry">
            <mxRectangle x="130" y="380" width="160" height="26" as="alternateBounds" />
          </mxGeometry>
        </mxCell>
        <mxCell id="2vN1RhJ9gDcvStLrzZKb-92" value="-grosaMorsa : String" style="text;align=left;verticalAlign=top;spacingLeft=4;spacingRight=4;overflow=hidden;rotatable=0;points=[[0,0.5],[1,0.5]];portConstraint=eastwest;rounded=0;shadow=0;html=0;" vertex="1" parent="2vN1RhJ9gDcvStLrzZKb-90">
          <mxGeometry y="26" width="160" height="30" as="geometry" />
        </mxCell>
        <mxCell id="2vN1RhJ9gDcvStLrzZKb-93" value="" style="line;html=1;strokeWidth=1;align=left;verticalAlign=middle;spacingTop=-1;spacingLeft=3;spacingRight=3;rotatable=0;labelPosition=right;points=[];portConstraint=eastwest;" vertex="1" parent="2vN1RhJ9gDcvStLrzZKb-90">
          <mxGeometry y="56" width="160" height="8" as="geometry" />
        </mxCell>
        <mxCell id="2vN1RhJ9gDcvStLrzZKb-94" value="+preparar()" style="text;align=left;verticalAlign=top;spacingLeft=4;spacingRight=4;overflow=hidden;rotatable=0;points=[[0,0.5],[1,0.5]];portConstraint=eastwest;fontStyle=4" vertex="1" parent="2vN1RhJ9gDcvStLrzZKb-90">
          <mxGeometry y="64" width="160" height="26" as="geometry" />
        </mxCell>
        <mxCell id="2vN1RhJ9gDcvStLrzZKb-95" value="+hornear()" style="text;align=left;verticalAlign=top;spacingLeft=4;spacingRight=4;overflow=hidden;rotatable=0;points=[[0,0.5],[1,0.5]];portConstraint=eastwest;" vertex="1" parent="2vN1RhJ9gDcvStLrzZKb-90">
          <mxGeometry y="90" width="160" height="26" as="geometry" />
        </mxCell>
        <mxCell id="2vN1RhJ9gDcvStLrzZKb-98" value="+cortar()" style="text;align=left;verticalAlign=top;spacingLeft=4;spacingRight=4;overflow=hidden;rotatable=0;points=[[0,0.5],[1,0.5]];portConstraint=eastwest;" vertex="1" parent="2vN1RhJ9gDcvStLrzZKb-90">
          <mxGeometry y="116" width="160" height="26" as="geometry" />
        </mxCell>
        <mxCell id="2vN1RhJ9gDcvStLrzZKb-106" value="+empacar()" style="text;align=left;verticalAlign=top;spacingLeft=4;spacingRight=4;overflow=hidden;rotatable=0;points=[[0,0.5],[1,0.5]];portConstraint=eastwest;" vertex="1" parent="2vN1RhJ9gDcvStLrzZKb-90">
          <mxGeometry y="142" width="160" height="26" as="geometry" />
        </mxCell>
        <mxCell id="2vN1RhJ9gDcvStLrzZKb-107" value="Sucursal" style="swimlane;fontStyle=1;align=center;verticalAlign=top;childLayout=stackLayout;horizontal=1;startSize=28;horizontalStack=0;resizeParent=1;resizeLast=0;collapsible=1;marginBottom=0;rounded=0;shadow=0;strokeWidth=1;fillColor=#d5e8d4;strokeColor=#82b366;" vertex="1" parent="1">
          <mxGeometry x="816" y="-99" width="199" height="301" as="geometry">
            <mxRectangle x="550" y="140" width="160" height="26" as="alternateBounds" />
          </mxGeometry>
        </mxCell>
        <mxCell id="2vN1RhJ9gDcvStLrzZKb-108" value="-nombre: String" style="text;align=left;verticalAlign=top;spacingLeft=4;spacingRight=4;overflow=hidden;rotatable=0;points=[[0,0.5],[1,0.5]];portConstraint=eastwest;" vertex="1" parent="2vN1RhJ9gDcvStLrzZKb-107">
          <mxGeometry y="28" width="199" height="26" as="geometry" />
        </mxCell>
        <mxCell id="2vN1RhJ9gDcvStLrzZKb-109" value="-direccion: String" style="text;align=left;verticalAlign=top;spacingLeft=4;spacingRight=4;overflow=hidden;rotatable=0;points=[[0,0.5],[1,0.5]];portConstraint=eastwest;" vertex="1" parent="2vN1RhJ9gDcvStLrzZKb-107">
          <mxGeometry y="54" width="199" height="26" as="geometry" />
        </mxCell>
        <mxCell id="2vN1RhJ9gDcvStLrzZKb-110" value="-empleados:Â  List&lt;Empleado&gt;" style="text;align=left;verticalAlign=top;spacingLeft=4;spacingRight=4;overflow=hidden;rotatable=0;points=[[0,0.5],[1,0.5]];portConstraint=eastwest;" vertex="1" parent="2vN1RhJ9gDcvStLrzZKb-107">
          <mxGeometry y="80" width="199" height="26" as="geometry" />
        </mxCell>
        <mxCell id="2vN1RhJ9gDcvStLrzZKb-111" value="-ingredientes:Â  List&lt;Ingrediente&gt;" style="text;align=left;verticalAlign=top;spacingLeft=4;spacingRight=4;overflow=hidden;rotatable=0;points=[[0,0.5],[1,0.5]];portConstraint=eastwest;" vertex="1" parent="2vN1RhJ9gDcvStLrzZKb-107">
          <mxGeometry y="106" width="199" height="26" as="geometry" />
        </mxCell>
        <mxCell id="2vN1RhJ9gDcvStLrzZKb-112" value="-equipos:Â  List&lt;Equipo&gt;" style="text;align=left;verticalAlign=top;spacingLeft=4;spacingRight=4;overflow=hidden;rotatable=0;points=[[0,0.5],[1,0.5]];portConstraint=eastwest;" vertex="1" parent="2vN1RhJ9gDcvStLrzZKb-107">
          <mxGeometry y="132" width="199" height="26" as="geometry" />
        </mxCell>
        <mxCell id="2vN1RhJ9gDcvStLrzZKb-113" value="-especialidades:Â List&lt;Pizza&gt;" style="text;align=left;verticalAlign=top;spacingLeft=4;spacingRight=4;overflow=hidden;rotatable=0;points=[[0,0.5],[1,0.5]];portConstraint=eastwest;" vertex="1" parent="2vN1RhJ9gDcvStLrzZKb-107">
          <mxGeometry y="158" width="199" height="26" as="geometry" />
        </mxCell>
        <mxCell id="2vN1RhJ9gDcvStLrzZKb-114" value="" style="line;html=1;strokeWidth=1;align=left;verticalAlign=middle;spacingTop=-1;spacingLeft=3;spacingRight=3;rotatable=0;labelPosition=right;points=[];portConstraint=eastwest;" vertex="1" parent="2vN1RhJ9gDcvStLrzZKb-107">
          <mxGeometry y="184" width="199" height="8" as="geometry" />
        </mxCell>
        <mxCell id="2vN1RhJ9gDcvStLrzZKb-115" value="+ agregarEmpleado(e : Empleado)" style="text;align=left;verticalAlign=top;spacingLeft=4;spacingRight=4;overflow=hidden;rotatable=0;points=[[0,0.5],[1,0.5]];portConstraint=eastwest;" vertex="1" parent="2vN1RhJ9gDcvStLrzZKb-107">
          <mxGeometry y="192" width="199" height="26" as="geometry" />
        </mxCell>
        <mxCell id="2vN1RhJ9gDcvStLrzZKb-116" value="+ agregarIngrediente(i : Ingrediente)" style="text;align=left;verticalAlign=top;spacingLeft=4;spacingRight=4;overflow=hidden;rotatable=0;points=[[0,0.5],[1,0.5]];portConstraint=eastwest;" vertex="1" parent="2vN1RhJ9gDcvStLrzZKb-107">
          <mxGeometry y="218" width="199" height="28" as="geometry" />
        </mxCell>
        <mxCell id="2vN1RhJ9gDcvStLrzZKb-117" value="+ agregarEquipo(e : Equipo)" style="text;align=left;verticalAlign=top;spacingLeft=4;spacingRight=4;overflow=hidden;rotatable=0;points=[[0,0.5],[1,0.5]];portConstraint=eastwest;" vertex="1" parent="2vN1RhJ9gDcvStLrzZKb-107">
          <mxGeometry y="246" width="199" height="26" as="geometry" />
        </mxCell>
        <mxCell id="2vN1RhJ9gDcvStLrzZKb-118" value="+ agregarEspecialidad(p : Pizza)" style="text;align=left;verticalAlign=top;spacingLeft=4;spacingRight=4;overflow=hidden;rotatable=0;points=[[0,0.5],[1,0.5]];portConstraint=eastwest;" vertex="1" parent="2vN1RhJ9gDcvStLrzZKb-107">
          <mxGeometry y="272" width="199" height="26" as="geometry" />
        </mxCell>
        <mxCell id="2vN1RhJ9gDcvStLrzZKb-119" value="Empleado" style="swimlane;fontStyle=1;align=center;verticalAlign=top;childLayout=stackLayout;horizontal=1;startSize=26;horizontalStack=0;resizeParent=1;resizeLast=0;collapsible=1;marginBottom=0;rounded=0;shadow=0;strokeWidth=1;fillColor=#d5e8d4;strokeColor=#82b366;" vertex="1" parent="1">
          <mxGeometry x="774" y="273" width="160" height="180" as="geometry">
            <mxRectangle x="130" y="380" width="160" height="26" as="alternateBounds" />
          </mxGeometry>
        </mxCell>
        <mxCell id="2vN1RhJ9gDcvStLrzZKb-141" value="- nombre : String|" style="text;align=left;verticalAlign=top;spacingLeft=4;spacingRight=4;overflow=hidden;rotatable=0;points=[[0,0.5],[1,0.5]];portConstraint=eastwest;rounded=0;shadow=0;html=0;" vertex="1" parent="2vN1RhJ9gDcvStLrzZKb-119">
          <mxGeometry y="26" width="160" height="30" as="geometry" />
        </mxCell>
        <mxCell id="2vN1RhJ9gDcvStLrzZKb-140" value="- puesto : String" style="text;align=left;verticalAlign=top;spacingLeft=4;spacingRight=4;overflow=hidden;rotatable=0;points=[[0,0.5],[1,0.5]];portConstraint=eastwest;rounded=0;shadow=0;html=0;" vertex="1" parent="2vN1RhJ9gDcvStLrzZKb-119">
          <mxGeometry y="56" width="160" height="30" as="geometry" />
        </mxCell>
        <mxCell id="2vN1RhJ9gDcvStLrzZKb-120" value="- salario : double" style="text;align=left;verticalAlign=top;spacingLeft=4;spacingRight=4;overflow=hidden;rotatable=0;points=[[0,0.5],[1,0.5]];portConstraint=eastwest;rounded=0;shadow=0;html=0;" vertex="1" parent="2vN1RhJ9gDcvStLrzZKb-119">
          <mxGeometry y="86" width="160" height="30" as="geometry" />
        </mxCell>
        <mxCell id="2vN1RhJ9gDcvStLrzZKb-121" value="" style="line;html=1;strokeWidth=1;align=left;verticalAlign=middle;spacingTop=-1;spacingLeft=3;spacingRight=3;rotatable=0;labelPosition=right;points=[];portConstraint=eastwest;" vertex="1" parent="2vN1RhJ9gDcvStLrzZKb-119">
          <mxGeometry y="116" width="160" height="8" as="geometry" />
        </mxCell>
        <mxCell id="2vN1RhJ9gDcvStLrzZKb-122" value="+ trabajar()Â " style="text;align=left;verticalAlign=top;spacingLeft=4;spacingRight=4;overflow=hidden;rotatable=0;points=[[0,0.5],[1,0.5]];portConstraint=eastwest;fontStyle=4" vertex="1" parent="2vN1RhJ9gDcvStLrzZKb-119">
          <mxGeometry y="124" width="160" height="26" as="geometry" />
        </mxCell>
        <mxCell id="2vN1RhJ9gDcvStLrzZKb-123" value="+ tomarOrden()Â " style="text;align=left;verticalAlign=top;spacingLeft=4;spacingRight=4;overflow=hidden;rotatable=0;points=[[0,0.5],[1,0.5]];portConstraint=eastwest;" vertex="1" parent="2vN1RhJ9gDcvStLrzZKb-119">
          <mxGeometry y="150" width="160" height="26" as="geometry" />
        </mxCell>
        <mxCell id="2vN1RhJ9gDcvStLrzZKb-142" value="Equipo" style="swimlane;fontStyle=1;align=center;verticalAlign=top;childLayout=stackLayout;horizontal=1;startSize=26;horizontalStack=0;resizeParent=1;resizeLast=0;collapsible=1;marginBottom=0;rounded=0;shadow=0;strokeWidth=1;fillColor=#d5e8d4;strokeColor=#82b366;" vertex="1" parent="1">
          <mxGeometry x="951" y="271" width="160" height="179" as="geometry">
            <mxRectangle x="130" y="380" width="160" height="26" as="alternateBounds" />
          </mxGeometry>
        </mxCell>
        <mxCell id="2vN1RhJ9gDcvStLrzZKb-143" value="- tipo : StringÂ " style="text;align=left;verticalAlign=top;spacingLeft=4;spacingRight=4;overflow=hidden;rotatable=0;points=[[0,0.5],[1,0.5]];portConstraint=eastwest;rounded=0;shadow=0;html=0;" vertex="1" parent="2vN1RhJ9gDcvStLrzZKb-142">
          <mxGeometry y="26" width="160" height="30" as="geometry" />
        </mxCell>
        <mxCell id="2vN1RhJ9gDcvStLrzZKb-144" value=" - estado : String" style="text;align=left;verticalAlign=top;spacingLeft=4;spacingRight=4;overflow=hidden;rotatable=0;points=[[0,0.5],[1,0.5]];portConstraint=eastwest;rounded=0;shadow=0;html=0;" vertex="1" parent="2vN1RhJ9gDcvStLrzZKb-142">
          <mxGeometry y="56" width="160" height="30" as="geometry" />
        </mxCell>
        <mxCell id="2vN1RhJ9gDcvStLrzZKb-146" value="" style="line;html=1;strokeWidth=1;align=left;verticalAlign=middle;spacingTop=-1;spacingLeft=3;spacingRight=3;rotatable=0;labelPosition=right;points=[];portConstraint=eastwest;" vertex="1" parent="2vN1RhJ9gDcvStLrzZKb-142">
          <mxGeometry y="86" width="160" height="8" as="geometry" />
        </mxCell>
        <mxCell id="2vN1RhJ9gDcvStLrzZKb-147" value="Â + encender()Â " style="text;align=left;verticalAlign=top;spacingLeft=4;spacingRight=4;overflow=hidden;rotatable=0;points=[[0,0.5],[1,0.5]];portConstraint=eastwest;fontStyle=4" vertex="1" parent="2vN1RhJ9gDcvStLrzZKb-142">
          <mxGeometry y="94" width="160" height="26" as="geometry" />
        </mxCell>
        <mxCell id="2vN1RhJ9gDcvStLrzZKb-148" value="+ apagar()  " style="text;align=left;verticalAlign=top;spacingLeft=4;spacingRight=4;overflow=hidden;rotatable=0;points=[[0,0.5],[1,0.5]];portConstraint=eastwest;" vertex="1" parent="2vN1RhJ9gDcvStLrzZKb-142">
          <mxGeometry y="120" width="160" height="26" as="geometry" />
        </mxCell>
        <mxCell id="2vN1RhJ9gDcvStLrzZKb-149" value="Â + reparar()Â " style="text;align=left;verticalAlign=top;spacingLeft=4;spacingRight=4;overflow=hidden;rotatable=0;points=[[0,0.5],[1,0.5]];portConstraint=eastwest;" vertex="1" parent="2vN1RhJ9gDcvStLrzZKb-142">
          <mxGeometry y="146" width="160" height="26" as="geometry" />
        </mxCell>
        <mxCell id="2vN1RhJ9gDcvStLrzZKb-152" value="" style="endArrow=none;dashed=1;html=1;rounded=0;fontSize=12;startSize=8;endSize=8;curved=1;" edge="1" parent="1">
          <mxGeometry width="50" height="50" relative="1" as="geometry">
            <mxPoint x="821" y="240" as="sourcePoint" />
            <mxPoint x="1018" y="240" as="targetPoint" />
          </mxGeometry>
        </mxCell>
        <mxCell id="2vN1RhJ9gDcvStLrzZKb-153" value="" style="endArrow=none;dashed=1;html=1;rounded=0;fontSize=12;startSize=8;endSize=8;curved=1;" edge="1" parent="1">
          <mxGeometry width="50" height="50" relative="1" as="geometry">
            <mxPoint x="1018" y="271" as="sourcePoint" />
            <mxPoint x="1020" y="238" as="targetPoint" />
          </mxGeometry>
        </mxCell>
        <mxCell id="2vN1RhJ9gDcvStLrzZKb-154" value="" style="endArrow=none;dashed=1;html=1;rounded=0;fontSize=12;startSize=8;endSize=8;curved=1;" edge="1" parent="1">
          <mxGeometry width="50" height="50" relative="1" as="geometry">
            <mxPoint x="821" y="275" as="sourcePoint" />
            <mxPoint x="823" y="242" as="targetPoint" />
          </mxGeometry>
        </mxCell>
        <mxCell id="2vN1RhJ9gDcvStLrzZKb-155" value="" style="endArrow=diamondThin;html=1;rounded=0;fontSize=12;startSize=8;endSize=8;curved=1;endFill=0;entryX=0.5;entryY=1;entryDx=0;entryDy=0;" edge="1" parent="1" target="2vN1RhJ9gDcvStLrzZKb-107">
          <mxGeometry width="50" height="50" relative="1" as="geometry">
            <mxPoint x="915" y="242" as="sourcePoint" />
            <mxPoint x="1195" y="371" as="targetPoint" />
          </mxGeometry>
        </mxCell>
        <mxCell id="2vN1RhJ9gDcvStLrzZKb-158" value="" style="line;strokeWidth=2;direction=south;html=1;" vertex="1" parent="1">
          <mxGeometry x="538" y="330" width="10" height="190" as="geometry" />
        </mxCell>
        <mxCell id="2vN1RhJ9gDcvStLrzZKb-159" value="" style="endArrow=classic;html=1;rounded=0;fontSize=12;startSize=8;endSize=8;curved=1;exitX=0.976;exitY=1.013;exitDx=0;exitDy=0;exitPerimeter=0;entryX=0.005;entryY=0;entryDx=0;entryDy=0;entryPerimeter=0;" edge="1" parent="1" source="2vN1RhJ9gDcvStLrzZKb-25" target="2vN1RhJ9gDcvStLrzZKb-32">
          <mxGeometry width="50" height="50" relative="1" as="geometry">
            <mxPoint x="134" y="308" as="sourcePoint" />
            <mxPoint x="184" y="258" as="targetPoint" />
          </mxGeometry>
        </mxCell>
        <mxCell id="2vN1RhJ9gDcvStLrzZKb-161" value="" style="endArrow=diamondThin;endFill=0;endSize=24;html=1;rounded=0;fontSize=12;curved=1;exitX=0.987;exitY=-0.017;exitDx=0;exitDy=0;fontStyle=1;exitPerimeter=0;entryX=-0.015;entryY=0.815;entryDx=0;entryDy=0;entryPerimeter=0;" edge="1" parent="1" source="2vN1RhJ9gDcvStLrzZKb-42" target="2vN1RhJ9gDcvStLrzZKb-112">
          <mxGeometry width="160" relative="1" as="geometry">
            <mxPoint x="960" y="202" as="sourcePoint" />
            <mxPoint x="802" y="48" as="targetPoint" />
          </mxGeometry>
        </mxCell>
        <mxCell id="2vN1RhJ9gDcvStLrzZKb-162" value="" style="endArrow=none;dashed=1;html=1;dashPattern=1 3;strokeWidth=2;rounded=0;fontSize=12;startSize=8;endSize=8;curved=1;" edge="1" parent="1">
          <mxGeometry width="50" height="50" relative="1" as="geometry">
            <mxPoint x="-178" y="108" as="sourcePoint" />
            <mxPoint x="268" y="108" as="targetPoint" />
          </mxGeometry>
        </mxCell>
        <mxCell id="2vN1RhJ9gDcvStLrzZKb-163" value="" style="endArrow=none;dashed=1;html=1;dashPattern=1 3;strokeWidth=2;rounded=0;fontSize=12;startSize=8;endSize=8;curved=1;" edge="1" parent="1">
          <mxGeometry width="50" height="50" relative="1" as="geometry">
            <mxPoint x="-180" y="141" as="sourcePoint" />
            <mxPoint x="-180" y="109" as="targetPoint" />
          </mxGeometry>
        </mxCell>
        <mxCell id="2vN1RhJ9gDcvStLrzZKb-164" value="" style="endArrow=none;dashed=1;html=1;dashPattern=1 3;strokeWidth=2;rounded=0;fontSize=12;startSize=8;endSize=8;curved=1;" edge="1" parent="1">
          <mxGeometry width="50" height="50" relative="1" as="geometry">
            <mxPoint x="48" y="139" as="sourcePoint" />
            <mxPoint x="48" y="107" as="targetPoint" />
          </mxGeometry>
        </mxCell>
        <mxCell id="2vN1RhJ9gDcvStLrzZKb-165" value="" style="endArrow=none;dashed=1;html=1;dashPattern=1 3;strokeWidth=2;rounded=0;fontSize=12;startSize=8;endSize=8;curved=1;" edge="1" parent="1">
          <mxGeometry width="50" height="50" relative="1" as="geometry">
            <mxPoint x="262" y="142" as="sourcePoint" />
            <mxPoint x="262" y="110" as="targetPoint" />
          </mxGeometry>
        </mxCell>
        <mxCell id="2vN1RhJ9gDcvStLrzZKb-166" value="" style="endArrow=classic;html=1;rounded=0;fontSize=12;startSize=8;endSize=8;curved=1;entryX=0.415;entryY=1.094;entryDx=0;entryDy=0;entryPerimeter=0;" edge="1" parent="1" target="2vN1RhJ9gDcvStLrzZKb-4">
          <mxGeometry width="50" height="50" relative="1" as="geometry">
            <mxPoint x="64" y="108" as="sourcePoint" />
            <mxPoint x="49" y="76" as="targetPoint" />
          </mxGeometry>
        </mxCell>
        <mxCell id="2vN1RhJ9gDcvStLrzZKb-168" value="" style="endArrow=diamondThin;endFill=1;endSize=24;html=1;rounded=0;fontSize=12;curved=1;" edge="1" parent="1">
          <mxGeometry width="160" relative="1" as="geometry">
            <mxPoint x="577" y="290" as="sourcePoint" />
            <mxPoint x="580" y="219" as="targetPoint" />
          </mxGeometry>
        </mxCell>
        <mxCell id="2vN1RhJ9gDcvStLrzZKb-169" value="" style="endArrow=diamondThin;endFill=1;endSize=24;html=1;rounded=0;fontSize=12;curved=1;" edge="1" parent="1">
          <mxGeometry width="160" relative="1" as="geometry">
            <mxPoint x="484" y="291" as="sourcePoint" />
            <mxPoint x="487" y="220" as="targetPoint" />
          </mxGeometry>
        </mxCell>
      </root>
    </mxGraphModel>
  </diagram>
</mxfile>
